<?xml version="1.0" encoding="UTF-8" standalone="yes"?>
<svg xmlns="http://www.w3.org/2000/svg" viewBox="0 0 80 80" width="80" height="80" fill="#000000">
  <path d="M 29.324219 5.5859375 L 14.585938 20.324219 L 25.923828 31.662109 L 24.744141 32.84375 C 23.324088 34.263802 22.814578 36.234844 23.160156 38.076172 C 20.8505 37.433618 18.454401 37 15.941406 37 C 15.855546 37 15.619283 37.005699 15.388672 37.074219 C 15.15806 37.142759 14.940209 37.253135 14.689453 37.410156 C 14.187941 37.724199 13.516246 38.250124 12.34375 39.269531 L 11.535156 39.972656 L 22.339844 50.777344 C 20.936591 51.662062 20 53.22434 20 55 C 20 57.749516 22.250484 60 25 60 C 26.77566 60 28.337938 59.063409 29.222656 57.660156 L 40.027344 68.464844 L 40.730469 67.65625 C 41.749923 66.4837 42.275841 65.81215 42.589844 65.310547 C 42.746845 65.059745 42.85726 64.841786 42.925781 64.611328 C 42.994302 64.380869 43 64.144222 43 64.058594 C 43 61.547012 42.566057 59.150867 41.923828 56.841797 C 43.765154 57.187372 45.7362 56.677862 47.15625 55.257812 L 48.337891 54.078125 L 59.675781 65.414062 L 74.414062 50.675781 L 73.707031 49.96875 L 62.964844 39.226562 C 65.649354 35.963319 65.579101 31.165038 62.53125 28.117188 L 51.882812 17.46875 C 48.834961 14.420899 44.036681 14.350646 40.773438 17.035156 L 29.324219 5.5859375 z M 29.324219 8.4140625 L 40.662109 19.751953 L 41.53125 18.882812 C 44.008213 16.40585 47.991787 16.40585 50.46875 18.882812 L 61.117188 29.53125 C 63.59415 32.008213 63.594148 35.991787 61.117188 38.46875 L 60.248047 39.337891 L 71.585938 50.675781 L 59.675781 62.585938 L 48.337891 51.248047 L 45.742188 53.84375 C 44.445946 55.139991 42.486393 55.312914 40.992188 54.404297 L 38.576172 52.933594 L 39.53125 55.595703 C 40.480162 58.239582 40.999768 61.085117 41 64.056641 C 40.999677 64.056752 40.98499 64.105511 40.894531 64.25 C 40.777734 64.436578 40.26355 65.043119 39.892578 65.501953 L 14.498047 40.107422 C 14.956833 39.736425 15.563518 39.222242 15.75 39.105469 C 15.89442 39.015034 15.943313 39.000301 15.943359 39 C 18.915921 39.000231 21.760418 39.519838 24.404297 40.46875 L 27.066406 41.423828 L 25.597656 39.007812 C 24.689039 37.513607 24.861962 35.554054 26.158203 34.257812 L 28.751953 31.662109 L 17.414062 20.324219 L 29.324219 8.4140625 z M 39 20 A 1 1 0 0 0 38 21 A 1 1 0 0 0 39 22 A 1 1 0 0 0 40 21 A 1 1 0 0 0 39 20 z M 36 23 A 1 1 0 0 0 35 24 A 1 1 0 0 0 36 25 A 1 1 0 0 0 37 24 A 1 1 0 0 0 36 23 z M 33 26 A 1 1 0 0 0 32 27 A 1 1 0 0 0 33 28 A 1 1 0 0 0 34 27 A 1 1 0 0 0 33 26 z M 30 29 A 1 1 0 0 0 29 30 A 1 1 0 0 0 30 31 A 1 1 0 0 0 31 30 A 1 1 0 0 0 30 29 z M 59 40 A 1 1 0 0 0 58 41 A 1 1 0 0 0 59 42 A 1 1 0 0 0 60 41 A 1 1 0 0 0 59 40 z M 30 43 A 1 1 0 0 0 29 44 A 1 1 0 0 0 30 45 A 1 1 0 0 0 31 44 A 1 1 0 0 0 30 43 z M 56 43 A 1 1 0 0 0 55 44 A 1 1 0 0 0 56 45 A 1 1 0 0 0 57 44 A 1 1 0 0 0 56 43 z M 33 46 A 1 1 0 0 0 32 47 A 1 1 0 0 0 33 48 A 1 1 0 0 0 34 47 A 1 1 0 0 0 33 46 z M 53 46 A 1 1 0 0 0 52 47 A 1 1 0 0 0 53 48 A 1 1 0 0 0 54 47 A 1 1 0 0 0 53 46 z M 36 49 A 1 1 0 0 0 35 50 A 1 1 0 0 0 36 51 A 1 1 0 0 0 37 50 A 1 1 0 0 0 36 49 z M 50 49 A 1 1 0 0 0 49 50 A 1 1 0 0 0 50 51 A 1 1 0 0 0 51 50 A 1 1 0 0 0 50 49 z M 9.5351562 49.859375 A 1 1 0 0 0 8.578125 50.601562 A 1 1 0 0 0 9.2851562 51.826172 A 1 1 0 0 0 10.509766 51.119141 A 1 1 0 0 0 9.8027344 49.894531 A 1 1 0 0 0 9.5351562 49.859375 z M 15.783203 50.171875 A 1 1 0 0 0 14.837891 50.789062 A 1 1 0 0 0 15.378906 52.095703 A 1 1 0 0 0 16.685547 51.554688 A 1 1 0 0 0 16.144531 50.248047 A 1 1 0 0 0 15.783203 50.171875 z M 23.8125 52.25 L 27.748047 56.185547 A 1.0001 1.0001 0 0 0 27.728516 56.228516 C 27.257634 57.271666 26.22415 58 25 58 C 23.331516 58 22 56.668484 22 55 C 22 53.77585 22.728334 52.742366 23.771484 52.271484 A 1.0001 1.0001 0 0 0 23.8125 52.25 z M 9 54 A 1 1 0 0 0 8 55 A 1 1 0 0 0 9 56 A 1 1 0 0 0 10 55 A 1 1 0 0 0 9 54 z M 15 54 A 1 1 0 0 0 14 55 A 1 1 0 0 0 15 56 A 1 1 0 0 0 16 55 A 1 1 0 0 0 15 54 z M 15.769531 57.826172 A 1 1 0 0 0 15.378906 57.902344 A 1 1 0 0 0 14.837891 59.208984 A 1 1 0 0 0 16.144531 59.75 A 1 1 0 0 0 16.685547 58.443359 A 1 1 0 0 0 15.769531 57.826172 z M 9.5527344 58.140625 A 1 1 0 0 0 9.4824219 58.142578 A 1 1 0 0 0 9.2851562 58.175781 A 1 1 0 0 0 8.578125 59.400391 A 1 1 0 0 0 9.8027344 60.107422 A 1 1 0 0 0 10.509766 58.882812 A 1 1 0 0 0 9.5527344 58.140625 z M 17.943359 61.070312 A 1 1 0 0 0 17.220703 61.363281 A 1 1 0 0 0 17.220703 62.777344 A 1 1 0 0 0 18.634766 62.777344 A 1 1 0 0 0 18.634766 61.363281 A 1 1 0 0 0 17.943359 61.070312 z M 11.119141 61.998047 A 1 1 0 0 0 10.642578 62.132812 A 1 1 0 0 0 10.277344 63.498047 A 1 1 0 0 0 11.642578 63.863281 A 1 1 0 0 0 12.009766 62.498047 A 1 1 0 0 0 11.119141 61.998047 z M 21.197266 63.238281 A 1 1 0 0 0 20.25 63.855469 A 1 1 0 0 0 20.792969 65.162109 A 1 1 0 0 0 22.099609 64.621094 A 1 1 0 0 0 21.556641 63.314453 A 1 1 0 0 0 21.197266 63.238281 z M 28.835938 63.238281 A 1 1 0 0 0 28.445312 63.314453 A 1 1 0 0 0 27.904297 64.621094 A 1 1 0 0 0 29.210938 65.162109 A 1 1 0 0 0 29.751953 63.855469 A 1 1 0 0 0 28.835938 63.238281 z M 25 64 A 1 1 0 0 0 24 65 A 1 1 0 0 0 25 66 A 1 1 0 0 0 26 65 A 1 1 0 0 0 25 64 z M 13.701172 65.314453 A 1 1 0 0 0 12.978516 65.607422 A 1 1 0 0 0 12.978516 67.021484 A 1 1 0 0 0 14.392578 67.021484 A 1 1 0 0 0 14.392578 65.607422 A 1 1 0 0 0 13.701172 65.314453 z M 16.951172 67.857422 A 1 1 0 0 0 16.132812 68.357422 A 1 1 0 0 0 16.498047 69.722656 A 1 1 0 0 0 17.865234 69.357422 A 1 1 0 0 0 17.498047 67.990234 A 1 1 0 0 0 16.951172 67.857422 z M 20.849609 69.455078 A 1 1 0 0 0 19.892578 70.197266 A 1 1 0 0 0 20.599609 71.421875 A 1 1 0 0 0 21.824219 70.714844 A 1 1 0 0 0 21.117188 69.490234 A 1 1 0 0 0 20.849609 69.455078 z M 29.148438 69.455078 A 1 1 0 0 0 29.078125 69.457031 A 1 1 0 0 0 28.880859 69.490234 A 1 1 0 0 0 28.173828 70.714844 A 1 1 0 0 0 29.398438 71.421875 A 1 1 0 0 0 30.105469 70.197266 A 1 1 0 0 0 29.148438 69.455078 z M 25 70 A 1 1 0 0 0 24 71 A 1 1 0 0 0 25 72 A 1 1 0 0 0 26 71 A 1 1 0 0 0 25 70 z"/>
</svg>
